<svg xmlns="http://www.w3.org/2000/svg" viewBox="0 0 180 180">
  <defs>
    <linearGradient id="g" x1="0%" y1="0%" x2="100%" y2="100%">
      <stop offset="0%" stop-color="#2E9B97"/>
      <stop offset="100%" stop-color="#1A6B72"/>
    </linearGradient>
  </defs>
  <!-- Full bleed background so iOS rendering looks clean on home screens -->
  <rect width="180" height="180" fill="white"/>
  <g transform="translate(28 28) scale(1.95)">
    <path
      d="M32 4 C50 4 60 17 60 32 C60 47 50 58 32 58 L20 58 L24 50 C12 46 4 40 4 32 C4 17 14 4 32 4 Z"
      fill="url(#g)"
    />
    <circle cx="25" cy="27" r="2.6" fill="white"/>
    <circle cx="39" cy="27" r="2.6" fill="white"/>
    <path
      d="M23 34 Q32 43 41 34"
      stroke="white" stroke-width="2.6" stroke-linecap="round" fill="none"
    />
    <path
      d="M52 12 L53 16 L57 17 L53 18 L52 22 L51 18 L47 17 L51 16 Z"
      fill="#F4A434"
    />
  </g>
</svg>
